#N canvas 635 146 791 641 10;
#X declare -lib gridflow;
#X obj 37 -3 import gridflow;
#X obj 387 56 #many tgl 6 8;
#X obj 391 160 hradio 15 1 0 8 empty empty empty 0 -8 0 10 -262144
-1 -1 0;
#X obj 324 230 + 1;
#X obj 391 34 hradio 15 1 0 8 empty empty empty 0 -8 0 10 -262144 -1
-1 0;
#X obj 304 33 r grid-input;
#X obj 349 365 s grid-input;
#X obj 395 266 sel 0 1 2 3 4 5 6 7;
#X obj 328 101 loadbang;
#X msg 329 124 0;
#N canvas 301 194 604 248 monome-connection 1;
#X obj -70 52 OSCroute /box;
#X obj -70 74 OSCroute /press;
#X obj -70 30 dumpOSC 8000;
#X obj -70 95 unpack f f f;
#X floatatom -70 117 5 0 0 0 - - -;
#X floatatom -36 117 5 0 0 0 - - -;
#X floatatom -1 117 5 0 0 0 - - -;
#X obj 0 196 s state;
#X obj -68 196 s row;
#X obj -34 196 s col;
#X obj -68 170 f;
#X obj -68 149 t b a;
#X obj 135 144 r coord;
#X obj 134 169 prepend send /box/led;
#X obj 239 35 loadbang;
#X msg 266 147 connect localhost 8080;
#X msg 274 170 disconnect;
#X obj 256 199 sendOSC;
#N canvas 17 361 849 398 clear 0;
#X obj 1 76 inlet;
#X msg 14 109 send /box/led_row 0 0;
#X msg 14 129 send /box/led_row 1 0;
#X msg 14 149 send /box/led_row 2 0;
#X msg 14 169 send /box/led_row 3 0;
#X msg 14 189 send /box/led_row 4 0;
#X msg 14 209 send /box/led_row 5 0;
#X obj -7 274 outlet;
#X msg 14 249 send /box/led_row 7 0;
#X msg 14 229 send /box/led_row 6 0;
#X connect 0 0 1 0;
#X connect 0 0 2 0;
#X connect 0 0 3 0;
#X connect 0 0 4 0;
#X connect 0 0 5 0;
#X connect 0 0 6 0;
#X connect 0 0 9 0;
#X connect 0 0 8 0;
#X connect 1 0 7 0;
#X connect 2 0 7 0;
#X connect 3 0 7 0;
#X connect 4 0 7 0;
#X connect 5 0 7 0;
#X connect 6 0 7 0;
#X connect 8 0 7 0;
#X connect 9 0 7 0;
#X restore 238 116 pd clear;
#X obj 239 60 t b b;
#X obj 271 90 r clear;
#X obj 239 89 bng 15 250 50 0 empty empty empty 0 -6 0 10 -262144 -1
-1;
#X text 53 107 Col;
#X text 80 106 Row;
#X text 110 107 State;
#X obj 169 203 r osc-raw;
#X text 16 6 INPUT;
#X text 231 8 OUTPUT;
#X connect 0 0 1 0;
#X connect 1 0 3 0;
#X connect 2 0 0 0;
#X connect 3 0 4 0;
#X connect 3 1 5 0;
#X connect 3 2 6 0;
#X connect 4 0 11 0;
#X connect 5 0 10 1;
#X connect 6 0 7 0;
#X connect 10 0 8 0;
#X connect 11 0 10 0;
#X connect 11 1 9 0;
#X connect 12 0 13 0;
#X connect 13 0 17 0;
#X connect 14 0 19 0;
#X connect 15 0 17 0;
#X connect 16 0 17 0;
#X connect 18 0 17 0;
#X connect 19 0 21 0;
#X connect 19 1 15 0;
#X connect 20 0 18 0;
#X connect 21 0 18 0;
#X connect 25 0 17 0;
#X restore 37 20 pd monome-connection;
#X obj 134 305 #store (6 8 #);
#X obj 174 330 #store (6 8 #);
#X obj 233 304 #store (6 8 #);
#X obj 288 328 #store (6 8 #);
#X obj 344 302 #store (6 8 #);
#X obj 386 328 #store (6 8 #);
#X obj 443 301 #store (6 8 #);
#X obj 486 325 #store (6 8 #);
#X msg 482 218 send /box/led_row 7 0;
#X obj 482 240 s osc-raw;
#X obj 413 238 s coord;
#X obj 413 217 pack f 7 1;
#X obj 413 195 t a b;
#X obj 297 157 r bank-sel;
#N canvas 0 22 312 356 grid-to-monome 0;
#X obj 163 21 inlet;
#X obj 109 301 s coord;
#X obj 134 94 drip;
#X obj 163 48 #to_list;
#X obj 163 70 t a b b;
#X obj 109 279 pack f f f;
#X text 183 278 Col Row State;
#X obj 110 154 counter;
#X obj 83 179 % 8;
#X obj 110 203 i;
#X obj 163 252 f;
#X obj 104 253 f;
#X obj 110 226 t b a b;
#X obj 133 252 + 1;
#X obj 110 180 / 8;
#X obj 134 121 t b a;
#X connect 0 0 3 0;
#X connect 2 0 10 1;
#X connect 2 0 15 0;
#X connect 3 0 4 0;
#X connect 4 0 2 0;
#X connect 4 2 7 2;
#X connect 5 0 1 0;
#X connect 7 0 8 0;
#X connect 7 0 14 0;
#X connect 8 0 11 1;
#X connect 9 0 12 0;
#X connect 10 0 5 2;
#X connect 11 0 5 0;
#X connect 12 0 11 0;
#X connect 12 1 13 0;
#X connect 12 2 10 0;
#X connect 13 0 5 1;
#X connect 14 0 9 0;
#X connect 15 0 7 0;
#X connect 15 1 10 1;
#X restore 247 184 pd grid-to-monome;
#X obj 121 114 metro 100;
#X obj 122 90 tgl 15 0 empty empty empty 17 7 0 10 -262144 -1 -1 0
1;
#X obj 69 439 makenote 100 300;
#X obj 92 465 noteout;
#X msg 29 417 35;
#N canvas 0 22 312 373 monome-to-grid 0;
#X msg 79 230 to \$1 \$2 set \$3;
#X obj 179 105 r state;
#X obj 103 124 r col;
#X obj 34 105 r row;
#X obj 34 125 moses 1;
#X obj 67 145 - 1;
#X obj 148 295 s grid-input;
#X obj 143 61 r toggle-mode;
#X obj 143 81 tgl 15 0 empty empty empty 17 7 0 10 -262144 -1 -1 1
1;
#X obj 148 270 switch;
#X obj 143 99 + 1;
#X msg 112 61 1;
#X obj 112 40 loadbang;
#X obj 79 209 pack f f f;
#X msg 194 206 to \$1 \$2 bang;
#X obj 194 186 pack f f;
#X obj 197 243 spigot;
#X obj 70 282 f;
#X obj 48 257 sel 7;
#X obj 58 317 s bank-sel;
#X text 85 15 Monome-to-grid;
#X connect 0 0 9 1;
#X connect 1 0 13 2;
#X connect 1 0 16 1;
#X connect 2 0 13 1;
#X connect 2 0 15 1;
#X connect 2 0 17 1;
#X connect 3 0 4 0;
#X connect 3 0 18 0;
#X connect 4 1 5 0;
#X connect 5 0 13 0;
#X connect 5 0 15 0;
#X connect 7 0 8 0;
#X connect 8 0 10 0;
#X connect 9 0 6 0;
#X connect 10 0 9 0;
#X connect 11 0 8 0;
#X connect 12 0 11 0;
#X connect 13 0 0 0;
#X connect 14 0 16 0;
#X connect 15 0 14 0;
#X connect 16 0 9 2;
#X connect 17 0 19 0;
#X connect 18 0 17 0;
#X restore 37 43 pd monome-to-grid;
#X floatatom 87 167 5 0 0 0 - - -;
#X obj 87 144 counter 7;
#X obj 76 118 bng 15 250 50 0 empty empty empty 17 7 0 10 -262144 -1
-1;
#X obj 193 118 bng 15 250 50 0 empty empty empty 17 7 0 10 -262144
-1 -1;
#X obj 295 547 print output;
#X obj 193 229 + 1;
#N canvas 195 259 376 379 retrieve-data 0;
#X obj 102 35 inlet;
#X obj 250 55 inlet;
#X obj 65 323 outlet;
#X obj 198 225 outlet;
#X obj 82 291 + 36;
#X obj 81 170 #slice (0 0) (6 1);
#X obj 102 94 t b f;
#X msg 119 136 0 \$1;
#X msg 158 133 6 \$1;
#X obj 163 112 + 1;
#X obj 81 197 #to_list;
#X obj 81 224 listfunnel;
#X obj 81 246 unpack;
#X obj 81 268 spigot;
#X text 143 35 Sequence position;
#X obj 244 121 display;
#X connect 0 0 6 0;
#X connect 1 0 5 0;
#X connect 1 0 15 0;
#X connect 4 0 2 0;
#X connect 5 0 10 0;
#X connect 6 0 3 0;
#X connect 6 1 9 0;
#X connect 6 1 7 0;
#X connect 7 0 5 1;
#X connect 8 0 5 2;
#X connect 9 0 8 0;
#X connect 10 0 11 0;
#X connect 11 0 12 0;
#X connect 12 0 13 0;
#X connect 12 1 13 1;
#X connect 13 0 4 0;
#X restore 58 223 pd retrieve-data;
#X obj 193 251 gate 8;
#X obj 324 251 gate 8;
#X obj 601 89 s osc-raw;
#X obj 532 87 s coord;
#X obj 532 44 t a b;
#X msg 601 67 send /box/led_row 0 0;
#X obj 532 66 pack f 0 1;
#X connect 1 0 25 0;
#X connect 1 0 40 1;
#X connect 2 0 3 0;
#X connect 2 0 7 0;
#X connect 2 0 23 0;
#X connect 2 0 37 0;
#X connect 3 0 40 0;
#X connect 4 0 43 0;
#X connect 5 0 1 0;
#X connect 7 0 11 0;
#X connect 7 1 12 0;
#X connect 7 2 13 0;
#X connect 7 3 14 0;
#X connect 7 4 15 0;
#X connect 7 5 16 0;
#X connect 7 6 17 0;
#X connect 7 7 18 0;
#X connect 8 0 9 0;
#X connect 9 0 2 0;
#X connect 11 0 6 0;
#X connect 11 0 38 1;
#X connect 12 0 6 0;
#X connect 12 0 38 1;
#X connect 13 0 6 0;
#X connect 13 0 38 1;
#X connect 14 0 6 0;
#X connect 14 0 38 1;
#X connect 15 0 6 0;
#X connect 15 0 38 1;
#X connect 16 0 6 0;
#X connect 16 0 38 1;
#X connect 17 0 6 0;
#X connect 17 0 38 1;
#X connect 18 0 6 0;
#X connect 18 0 38 1;
#X connect 19 0 20 0;
#X connect 22 0 21 0;
#X connect 23 0 22 0;
#X connect 23 1 19 0;
#X connect 24 0 2 0;
#X connect 26 0 33 0;
#X connect 27 0 26 0;
#X connect 28 0 29 0;
#X connect 28 1 29 1;
#X connect 30 0 28 0;
#X connect 32 0 38 0;
#X connect 32 0 4 0;
#X connect 33 0 32 0;
#X connect 34 0 33 0;
#X connect 35 0 33 2;
#X connect 37 0 39 0;
#X connect 38 0 28 0;
#X connect 38 1 39 1;
#X connect 39 0 11 0;
#X connect 39 1 12 0;
#X connect 39 2 13 0;
#X connect 39 3 14 0;
#X connect 39 4 15 0;
#X connect 39 5 16 0;
#X connect 40 0 11 1;
#X connect 40 1 12 1;
#X connect 40 2 13 1;
#X connect 40 3 14 1;
#X connect 40 4 15 1;
#X connect 40 5 16 1;
#X connect 40 6 17 1;
#X connect 40 7 18 1;
#X connect 43 0 45 0;
#X connect 43 1 44 0;
#X connect 44 0 41 0;
#X connect 45 0 42 0;
